<?xml version="1.0" encoding="UTF-8" standalone="no"?>
<svg
   version="1.1"
   width="480"
   height="104"
   id="svg88"
   viewBox="0 0 480 104"
   sodipodi:docname="logo_mc_vd_480_104.svg"
   inkscape:version="1.2.1 (9c6d41e410, 2022-07-14)"
   xmlns:inkscape="http://www.inkscape.org/namespaces/inkscape"
   xmlns:sodipodi="http://sodipodi.sourceforge.net/DTD/sodipodi-0.dtd"
   xmlns="http://www.w3.org/2000/svg"
   xmlns:svg="http://www.w3.org/2000/svg"
   xmlns:rdf="http://www.w3.org/1999/02/22-rdf-syntax-ns#"
   xmlns:cc="http://creativecommons.org/ns#"
   xmlns:dc="http://purl.org/dc/elements/1.1/">
  <metadata
     id="metadata94">
    <rdf:RDF>
      <cc:Work
         rdf:about="">
        <dc:format>image/svg+xml</dc:format>
        <dc:type
           rdf:resource="http://purl.org/dc/dcmitype/StillImage" />
      </cc:Work>
    </rdf:RDF>
  </metadata>
  <defs
     id="defs92" />
  <sodipodi:namedview
     pagecolor="#ffffff"
     bordercolor="#666666"
     borderopacity="1"
     objecttolerance="10"
     gridtolerance="10"
     guidetolerance="10"
     inkscape:pageopacity="0"
     inkscape:pageshadow="2"
     inkscape:window-width="1920"
     inkscape:window-height="1018"
     id="namedview90"
     showgrid="false"
     inkscape:zoom="2.1951738"
     inkscape:cx="215.47269"
     inkscape:cy="37.582446"
     inkscape:window-x="1913"
     inkscape:window-y="-6"
     inkscape:window-maximized="1"
     inkscape:current-layer="svg88"
     inkscape:showpageshadow="2"
     inkscape:pagecheckerboard="0"
     inkscape:deskcolor="#d1d1d1" />
  <g
     id="g114"
     inkscape:export-xdpi="178.25"
     inkscape:export-ydpi="178.25"
     transform="matrix(1.9168823,0,0,1.7968463,4.2133964,-61.579224)">
    <path
       inkscape:connector-curvature="0"
       id="path36"
       style="fill:#979897;fill-rule:evenodd"
       d="m 72.631027,60.848346 a 5.597,5.597 0 0 1 5.597,5.5971 5.597,5.597 0 1 1 -5.597,-5.5971 z" />
    <path
       inkscape:connector-curvature="0"
       id="path38"
       style="fill:#006bab;fill-rule:evenodd"
       d="m 72.631027,60.294746 c 1.6984,0 3.2361,0.6885 4.3491,1.8015 1.1131,1.1131 1.8015,2.6508 1.8015,4.3491 0,1.6984 -0.6884,3.2361 -1.8015,4.3491 -1.113,1.1131 -2.6507,1.8016 -4.3491,1.8016 -1.6984,0 -3.236,-0.6885 -4.3491,-1.8016 -1.113,-1.113 -1.8015,-2.6507 -1.8015,-4.3491 0,-1.6983 0.6885,-3.236 1.8015,-4.3491 1.1131,-1.113 2.6507,-1.8015 4.3491,-1.8015 z m 3.5663,2.5844 c -0.9127,-0.9127 -2.1735,-1.4772 -3.5663,-1.4772 -1.3927,0 -2.6536,0.5645 -3.5662,1.4772 -0.9127,0.9126 -1.4772,2.1735 -1.4772,3.5662 0,1.3928 0.5645,2.6537 1.4772,3.5663 0.9126,0.9126 2.1735,1.4771 3.5662,1.4771 1.3928,0 2.6536,-0.5645 3.5663,-1.4771 0.9126,-0.9126 1.4771,-2.1735 1.4771,-3.5663 0,-1.3927 -0.5645,-2.6536 -1.4771,-3.5662 z" />
    <path
       inkscape:connector-curvature="0"
       id="path40"
       style="fill:#006bab;fill-rule:evenodd"
       d="m 68.451427,62.625946 c -0.6138,-0.7677 -2.9343,-4.0604 -3.8464,-8.6549 -0.5199,-2.6202 -0.5925,-5.6733 0.3459,-8.9467 0.1841,-0.642 0.4487,-1.281 0.7868,-1.9027 1.0946,-2.013 2.9523,-3.7709 5.3287,-4.7927 2.3619,-1.0155 5.2328,-1.3109 8.367,-0.4123 1.0779,0.3089 2.1935,0.7645 3.3381,1.3865 1.0079,0.5481 2.0402,1.3627 3.1463,2.2358 2.163,1.7078 4.6378,3.661 7.3036,3.7542 1.0132,0.0355 2.2687,-0.5842 3.5967,-1.4999 1.4416,-0.9946 2.9563,-2.3459 4.365703,-3.6308 2.5939,-2.3649 5.717,-3.5091 8.714,-3.535 1.5741,-0.0138 3.1102,0.2796 4.5157,0.8655 1.4192,0.5915 2.7081,1.4787 3.7732,2.6471 1.8085,1.9835 2.9619,4.7658 2.9924,8.2673 0.0105,1.2128 -0.0295,2.3803 -0.1175,3.5048 -0.0896,1.1402 0.1875,-1.1252 0,0 l -2.2059,-0.173 c 0.1739,-1.0428 -0.086,1.0963 0,0 0.0873,-1.112 0.1273,-2.2168 0.1178,-3.3147 -0.0253,-2.9084 -0.9588,-5.1922 -2.4216,-6.7965 -0.8416,-0.9233 -1.8617,-1.6251 -2.9862,-2.0938 -1.1383,-0.4742 -2.3803,-0.7119 -3.6508,-0.701 -2.4735,0.0216 -5.0678,0.9807 -7.2433,2.9641 -1.4563,1.3277 -3.028503,2.7292 -4.599003,3.8123 -1.6842,1.1616 -3.3663,1.9438 -4.9201,1.8893 -3.3932,-0.1185 -6.1722,-2.3123 -8.6014,-4.2298 -1.0257,-0.8094 -1.9825,-1.5647 -2.8352,-2.0284 -0.9807,-0.5331 -1.9467,-0.9263 -2.888,-1.1961 -2.6019,-0.746 -4.9625,-0.5107 -6.8881,0.3171 -1.9113,0.8219 -3.3975,2.2207 -4.2643,3.8153 -0.2521,0.4637 -0.4526,0.9515 -0.5967,1.453 -0.8288,2.8913 -0.7635,5.5942 -0.3026,7.9174 0.8199,4.1294 2.8581,7.0295 3.3967,7.7034 z m 41.169403,15.5362 c -2.5457,3.2418 -5.4252,6.2733 -8.3802,8.4238 -2.598903,1.8916 -5.269003,3.1047 -7.852803,3.2051 -1.0165,0.0397 -3.2996,-0.3653 -5.8532,-1.8233 -1.6542,-0.9449 -3.4509,-2.3346 -5.1317,-4.3371 l 1.6956,-1.4186 c 1.4944,1.7803 3.0764,3.0072 4.5262,3.8353 2.1413,1.223 3.9239,1.5676 4.6853,1.538 2.1063,-0.082 4.3716,-1.1353 6.6331,-2.7813 2.762303,-2.0104 5.496403,-4.8981 7.939103,-8.0087 z" />
    <path
       inkscape:connector-curvature="0"
       id="path42"
       style="fill:#006bab;fill-rule:evenodd"
       d="m 58.578527,61.162546 c -0.3328,0.2295 -0.619,0.4707 -0.8594,0.7209 -0.582,0.6061 -0.8874,1.263 -0.9266,1.933 -0.0398,0.68 0.1891,1.3928 0.6762,2.099 0.2236,0.3243 0.5018,0.6475 0.8336,0.9662 1.0394,0.9982 2.393,2.3824 3.9191,3.943 3.5826,3.6635 8.1224,8.3059 11.7286,11.1499 1.7686,1.3947 3.0473,2.2314 4.2609,2.3824 1.1817,0.147 2.3936,-0.3603 4.0742,-1.6427 l 0.0217,-0.0166 0.0302,-0.018 c 3.9953,-2.3859 3.7248,-3.3866 2.9131,-6.3898 -0.1209,-0.4473 -0.2531,-0.9367 -0.4047,-1.5549 -1.0914,-4.4536 -3.4359,-10.5137 -5.2861,-15.296 -0.7876,-2.0359 -1.4862,-3.8417 -1.9637,-5.2011 -0.1519,-0.4324 -0.3306,-0.8191 -0.5333,-1.1576 -0.4411,-0.7364 -0.9941,-1.2401 -1.6278,-1.4851 -0.627,-0.2424 -1.3527,-0.2368 -2.1468,0.0421 -0.3258,0.1144 -0.6633,0.2748 -1.0107,0.4829 l -0.5666,-0.9472 c 0.4119,-0.2467 0.8174,-0.4388 1.214,-0.5781 1.0504,-0.3689 2.0341,-0.3669 2.908,-0.029 0.8673,0.3353 1.607,0.996 2.1771,1.9479 0.2407,0.4019 0.4513,0.8564 0.6285,1.3608 0.4732,1.3475 1.1677,3.1426 1.9507,5.1665 1.8614,4.8113 4.2201,10.9081 5.3294,15.4344 0.1253,0.5114 0.269,1.0431 0.4003,1.5289 0.9725,3.5979 1.2975,4.8022 -3.3843,7.6042 -1.9206,1.4615 -3.3642,2.0327 -4.8573,1.847 -1.4667,-0.1825 -2.888,-1.0958 -4.8102,-2.6117 -3.6535,-2.8813 -8.2273,-7.5584 -11.8367,-11.2494 -1.5174,-1.5516 -2.8632,-2.9279 -3.8931,-3.917 -0.3842,-0.369 -0.7101,-0.7487 -0.9764,-1.1348 -0.6302,-0.9139 -0.9251,-1.8602 -0.8708,-2.7868 0.0548,-0.9366 0.4615,-1.8338 1.2337,-2.6379 0.2898,-0.3018 0.6323,-0.5907 1.0281,-0.8636 z" />
    <path
       inkscape:connector-curvature="0"
       id="path44"
       style="fill:#006bab;fill-rule:evenodd"
       d="m 56.790427,60.190046 3.4303,-2.6844 c 0.292,-0.2285 0.7178,-0.1765 0.9463,0.1154 l 0.5752,0.7351 c 0.2285,0.292 0.1766,0.7178 -0.1154,0.9463 l -3.4302,2.6844 c -0.292,0.2285 -0.7178,0.1765 -0.9463,-0.1154 l -0.5753,-0.7351 c -0.2285,-0.292 -0.1765,-0.7178 0.1154,-0.9463 z" />
    <path
       inkscape:connector-curvature="0"
       id="path46"
       style="fill:#9b9d9f;fill-rule:evenodd"
       d="m 56.785927,60.184346 3.4302,-2.6845 c 0.1477,-0.1155 0.3291,-0.1601 0.5024,-0.139 0.1734,0.0211 0.3387,0.108 0.4543,0.2556 l 0.5754,0.7353 c 0.1154,0.1476 0.16,0.3289 0.1388,0.5022 -0.0211,0.1733 -0.108,0.3387 -0.2555,0.4542 -0.8467,0.8466 -2.4484,1.8427 -3.4306,2.6846 -0.1476,0.1154 -0.3289,0.16 -0.5022,0.1389 -0.1732,-0.0212 -0.3385,-0.108 -0.454,-0.2555 l -0.5755,-0.7353 c -0.1155,-0.1476 -0.1601,-0.329 -0.1389,-0.5024 0.0211,-0.1733 0.108,-0.3387 0.2556,-0.4541 z m 3.4393,-2.6729 -3.4303,2.6845 c -0.1443,0.1129 -0.2293,0.2747 -0.25,0.4443 -0.0207,0.1697 0.0229,0.3472 0.1359,0.4916 l 0.5754,0.7352 c 0.113,0.1443 0.2747,0.2292 0.4443,0.2499 0.1696,0.0207 0.3469,-0.0229 0.4912,-0.1357 0.9822,-0.8419 2.584,-1.8381 3.4307,-2.6848 0.1443,-0.1129 0.2293,-0.2746 0.25,-0.4442 0.0207,-0.1697 -0.023,-0.3471 -0.1358,-0.4914 l -0.5754,-0.7353 c -0.113,-0.1444 -0.2748,-0.2294 -0.4444,-0.2501 -0.1697,-0.0206 -0.3472,0.023 -0.4916,0.136 z" />
    <path
       inkscape:connector-curvature="0"
       id="path48"
       style="fill:#006bab;fill-rule:evenodd"
       d="m 74.256827,52.212246 -4.0658,1.5626 c -0.3461,0.133 -0.738,-0.0413 -0.871,-0.3874 l -0.3349,-0.8713 c -0.133,-0.346 0.0413,-0.738 0.3874,-0.871 l 4.0658,-1.5626 c 0.3461,-0.133 0.738,0.0413 0.8711,0.3874 l 0.3348,0.8713 c 0.133,0.3461 -0.0413,0.738 -0.3874,0.871 z" />
    <path
       inkscape:connector-curvature="0"
       id="path50"
       style="fill:#9b9d9f;fill-rule:evenodd"
       d="m 74.259427,52.219146 -4.0657,1.5626 c -0.175,0.0672 -0.3615,0.0568 -0.5211,-0.0142 -0.1596,-0.071 -0.2923,-0.2025 -0.3595,-0.3775 l -0.3349,-0.8712 c -0.0672,-0.1749 -0.0568,-0.3615 0.0142,-0.5211 0.071,-0.1596 0.2025,-0.2922 0.3774,-0.3595 l 4.0659,-1.5626 c 0.1749,-0.0672 0.3614,-0.0568 0.521,0.0142 0.1596,0.071 0.2923,0.2025 0.3595,0.3775 l 0.3349,0.8713 c 0.0672,0.1749 0.0568,0.3614 -0.0142,0.521 -0.071,0.1596 -0.2025,0.2923 -0.3775,0.3595 z m -4.071,1.5489 4.0658,-1.5626 c 0.1711,-0.0658 0.2998,-0.1956 0.3693,-0.3518 0.0694,-0.1562 0.0796,-0.3387 0.0138,-0.5098 l -0.3348,-0.8713 c -0.0658,-0.1711 -0.1956,-0.2998 -0.3518,-0.3692 -0.1562,-0.0695 -0.3387,-0.0797 -0.5098,-0.014 l -4.0658,1.5626 c -0.1711,0.0658 -0.2998,0.1956 -0.3693,0.3518 -0.0694,0.1562 -0.0796,0.3387 -0.0139,0.5098 l 0.3349,0.8713 c 0.0658,0.1711 0.1956,0.2998 0.3518,0.3693 0.1561,0.0694 0.3387,0.0797 0.5098,0.0139 z" />
    <path
       inkscape:connector-curvature="0"
       id="path52"
       style="fill:#006bab;fill-rule:evenodd"
       d="m 90.808227,64.637546 v -11.0232 h 1.74 c 1.0107,0 1.7476,0.0639 2.2159,0.1944 0.6627,0.1766 1.1898,0.5015 1.5813,0.9749 0.3915,0.476 0.5886,1.0363 0.5886,1.6811 0,0.4197 -0.0896,0.8009 -0.2662,1.1438 -0.1765,0.3429 -0.4657,0.6653 -0.8648,0.9647 0.6678,0.3147 1.1565,0.7062 1.4662,1.1796 0.3096,0.4708 0.4631,1.0286 0.4631,1.6734 0,0.6193 -0.1612,1.1822 -0.4811,1.6914 -0.3224,0.5092 -0.7369,0.8905 -1.2435,1.1412 -0.5067,0.2533 -1.2052,0.3787 -2.0982,0.3787 z m 2.088,-9.0274 v 2.3336 h 0.4682 c 0.522,0 0.911,-0.1074 1.1643,-0.3249 0.2533,-0.215 0.3787,-0.5092 0.3787,-0.8803 0,-0.3454 -0.1203,-0.6192 -0.3608,-0.8239 -0.2405,-0.2021 -0.6064,-0.3045 -1.0977,-0.3045 z m 0,4.2067 v 2.8249 h 0.5322 c 0.8828,0 1.479,-0.1101 1.786,-0.3301 0.3071,-0.2201 0.4606,-0.5399 0.4606,-0.9596 0,-0.4733 -0.1791,-0.8495 -0.5399,-1.1233 -0.3608,-0.2738 -0.9595,-0.4119 -1.7962,-0.4119 z m 10.201903,-6.2025 h 2.1135 l 4.2425,11.0232 h -2.1826 l -0.8598,-2.2722 h -4.5188 l -0.8802,2.2722 h -2.182703 z m 1.0593,2.9298 -1.4943,3.7947 h 2.981 z m 11.9931,6.205 v -9.1348 h 2.1187 v 9.1348 h 2.9937 v -9.1348 h 2.1341 v 11.0232 h -12.3283 v -11.0232 h 2.134 v 9.1348 z m 17.6224,-9.1348 h 2.1212 l 3.5618,9.0581 h 1.2231 v 3.6079 h -2.0265 v -1.6428 h -7.615 v 1.6428 h -2.0265 v -3.6079 h 1.2256 z m 1.0798,2.8991 -2.4206,6.159 h 4.8412 z m 12.3743,-3.1755 c 1.5583,0 2.8991,0.5655 4.0198,1.6939 1.1233,1.1284 1.6837,2.5051 1.6837,4.1274 0,1.6094 -0.5527,2.9707 -1.6606,4.0838 -1.1054,1.1131 -2.4488,1.6709 -4.0276,1.6709 -1.6555,0 -3.0296,-0.5732 -4.1222,-1.717 -1.0951,-1.1438 -1.6427,-2.5025 -1.6427,-4.0761 0,-1.0517 0.2559,-2.0215 0.7651,-2.9068 0.5092,-0.8828 1.2103,-1.5839 2.1007,-2.1008 0.893,-0.5169 1.8551,-0.7753 2.8838,-0.7753 z m -0.0307,2.0573 c -1.0159,0 -1.8705,0.3556 -2.5614,1.0644 -0.6934,0.7088 -1.0388,1.6095 -1.0388,2.7047 0,1.218 0.435,2.1826 1.3075,2.8914 0.6781,0.5553 1.4534,0.8316 2.3311,0.8316 0.9902,0 1.8346,-0.3608 2.5306,-1.0798 0.6986,-0.719 1.0465,-1.6044 1.0465,-2.6586 0,-1.0491 -0.3505,-1.937 -1.0542,-2.6637 -0.7011,-0.7267 -1.5557,-1.09 -2.5613,-1.09 z m 7.7429,-1.7809 h 2.1187 v 3.8126 l 2.9835,-3.8126 h 2.5306 l -3.8509,4.9205 4.2245,6.1027 h -2.4897 l -3.398,-4.9103 v 4.9103 h -2.1187 z m 8.4312,0 h 6.095 v 2.0726 h -2.0112 v 8.9506 h -2.134 v -8.9506 h -1.9498 z m 12.7197,-0.2764 c 1.5583,0 2.8991,0.5655 4.0199,1.6939 1.1233,1.1284 1.6837,2.5051 1.6837,4.1274 0,1.6094 -0.5527,2.9707 -1.6607,4.0838 -1.1054,1.1131 -2.4487,1.6709 -4.0275,1.6709 -1.6555,0 -3.0296,-0.5732 -4.1222,-1.717 -1.0952,-1.1438 -1.6428,-2.5025 -1.6428,-4.0761 0,-1.0517 0.2559,-2.0215 0.7651,-2.9068 0.5092,-0.8828 1.2103,-1.5839 2.1008,-2.1008 0.893,-0.5169 1.8551,-0.7753 2.8837,-0.7753 z m -0.0307,2.0573 c -1.0158,0 -1.8704,0.3556 -2.5613,1.0644 -0.6935,0.7088 -1.0389,1.6095 -1.0389,2.7047 0,1.218 0.435,2.1826 1.3076,2.8914 0.678,0.5553 1.4533,0.8316 2.331,0.8316 0.9903,0 1.8347,-0.3608 2.5307,-1.0798 0.6985,-0.719 1.0465,-1.6044 1.0465,-2.6586 0,-1.0491 -0.3506,-1.937 -1.0542,-2.6637 -0.7011,-0.7267 -1.5558,-1.09 -2.5614,-1.09 z m 7.7122,-1.7809 h 2.2287 c 1.2052,0 2.0727,0.11 2.6049,0.3326 0.5322,0.2226 0.9544,0.5834 1.2615,1.0798 0.307,0.4964 0.4605,1.0926 0.4605,1.7886 0,0.7702 -0.2021,1.4099 -0.6064,1.9191 -0.4017,0.5092 -0.9493,0.8649 -1.6427,1.0645 -0.4069,0.1151 -1.1464,0.1714 -2.2185,0.1714 v 4.6672 h -2.088 z m 2.088,4.3141 h 0.673 c 0.5296,0 0.8955,-0.0384 1.1028,-0.1126 0.2073,-0.0768 0.3685,-0.1996 0.4887,-0.3736 0.1177,-0.174 0.1766,-0.3838 0.1766,-0.632 0,-0.4273 -0.1663,-0.7395 -0.499,-0.934 -0.2405,-0.1458 -0.6909,-0.22 -1.3459,-0.22 h -0.5962 z" />
    <path
       inkscape:connector-curvature="0"
       id="path54"
       style="fill:#e30016;fill-rule:evenodd"
       d="m 94.257527,73.568446 1.597,-3.2541 h 0.8537 l 1.286,5.1605 h -1.2666 l -0.6916,-3.0289 -1.5421,3.0289 h -0.5312 l -1.5032,-3.0306 -0.6948,3.0306 h -1.2635 l 1.291,-5.1605 h 0.8536 z m 9.613203,-0.3094 h -4.154603 c 0.0599,0.3677 0.2202,0.6608 0.479403,0.8795 0.2592,0.2171 0.5912,0.3256 0.9929,0.3256 0.4827,0 0.8957,-0.1701 1.2424,-0.5102 l 1.0852,0.5134 c -0.2705,0.3855 -0.5961,0.6706 -0.9735,0.8569 -0.379,0.1846 -0.8277,0.277 -1.3476,0.277 -0.8066,0 -1.464303,-0.2543 -1.971303,-0.7646 -0.5069,-0.5086 -0.7612,-1.1468 -0.7612,-1.9129 0,-0.7856 0.2543,-1.4384 0.7612,-1.9567 0.507,-0.5199 1.142003,-0.7791 1.908103,-0.7791 0.8115,0 1.4724,0.2592 1.981,0.7759 0.5086,0.5183 0.7629,1.2002 0.7629,2.0506 z m -1.2877,-1.0107 c -0.0858,-0.2819 -0.2543,-0.5119 -0.5053,-0.6884 -0.2527,-0.1766 -0.5443,-0.2641 -0.8779,-0.2641 -0.3613,0 -0.6771,0.0988 -0.9508,0.2981 -0.1701,0.1231 -0.328903,0.3417 -0.474603,0.6544 z m 3.0144,3.2265 v 0.8941 h -1.1565 v -1.9923 h 0.7759 l 1.7898,-4.0623 h 0.8358 l 1.8012,4.0623 h 0.7936 v 1.9923 h -1.2342 v -0.8941 z m 2.6694,-1.0982 -0.8472,-2.1802 -0.8876,2.1802 z m 3.6736,1.0982 h -0.6884 v -5.1605 h 1.2634 v 3.0305 l 2.6434,-3.0305 h 0.622 v 5.1605 h -1.2634 v -2.969 z m 5.1443,0 v -5.1605 h 1.2926 v 3.9165 h 1.9437 v -3.9165 h 1.2926 v 3.9165 h 1.312 v 2.1478 h -1.2343 v -0.9038 z m 7.2371,0 h -0.6884 v -5.1605 h 1.2634 v 3.0305 l 2.6435,-3.0305 h 0.622 v 5.1605 h -1.2635 v -2.969 z m 6.4369,-3.3043 h 1.9437 v -1.8562 h 1.2926 v 5.1605 h -1.2926 v -2.1381 h -1.9437 v 2.1381 h -1.2925 v -5.1605 h 1.2925 z m 9.5939,-0.8066 -1.0772,0.5928 c -0.2024,-0.2122 -0.4017,-0.358 -0.5993,-0.4406 -0.1976,-0.0826 -0.4292,-0.1231 -0.6949,-0.1231 -0.4843,0 -0.8762,0.1442 -1.1743,0.4309 -0.2996,0.2883 -0.4487,0.656 -0.4487,1.1063 0,0.4373 0.1442,0.7937 0.4309,1.0706 0.2883,0.277 0.6657,0.4147 1.1338,0.4147 0.5783,0 1.0286,-0.1976 1.3525,-0.5928 l 1.0189,0.6997 c -0.554,0.7192 -1.3347,1.0788 -2.3438,1.0788 -0.9087,0 -1.6198,-0.2689 -2.1333,-0.8051 -0.5134,-0.5361 -0.771,-1.163 -0.771,-1.8821 0,-0.4989 0.1248,-0.9573 0.3742,-1.3768 0.2511,-0.4195 0.5993,-0.75 1.048,-0.9897 0.447,-0.2397 0.9475,-0.3596 1.5015,-0.3596 0.5135,0 0.9735,0.1021 1.3817,0.3062 0.4081,0.204 0.7418,0.494 1.001,0.8698 z m 1.1678,-1.0496 h 1.2926 v 1.9323 l 1.7963,-1.9323 h 1.5793 l -2.3114,2.5073 2.3405,2.6532 h -1.7218 l -1.5436,-1.819 -0.1393,0.1588 v 1.6602 h -1.2926 z m 5.9089,5.1605 h -0.6884 v -5.1605 h 1.2634 v 3.0305 l 2.6435,-3.0305 h 0.6219 v 5.1605 h -1.2634 v -2.969 z m 5.8327,0 h -0.6884 v -5.1605 h 1.2635 v 3.0305 l 2.6434,-3.0305 h 0.622 v 5.1605 h -1.2634 v -2.969 z m -0.3385,-7.4347 h 1.0496 c 0.0826,0.1296 0.196,0.2268 0.3434,0.2916 0.1458,0.0648 0.3256,0.0972 0.5361,0.0972 0.2138,0 0.4082,-0.0373 0.5815,-0.1134 0.1134,-0.0502 0.2122,-0.1426 0.2981,-0.2754 h 1.0496 c -0.06,0.4017 -0.2527,0.7241 -0.5767,0.967 -0.3239,0.243 -0.7758,0.3645 -1.3573,0.3645 -0.392,0 -0.7192,-0.0551 -0.9832,-0.1636 -0.264,-0.1086 -0.4762,-0.2641 -0.6382,-0.4665 -0.1604,-0.2025 -0.2624,-0.4357 -0.3029,-0.7014 z m 8.2025,7.4347 v -5.1605 h 1.2925 v 3.9165 h 1.9437 v -3.9165 h 1.2926 v 3.9165 h 1.312 v 2.1478 h -1.2342 v -0.9038 z m 11.7141,-2.2158 h -4.1547 c 0.0599,0.3677 0.2203,0.6608 0.4794,0.8795 0.2592,0.2171 0.5912,0.3256 0.9929,0.3256 0.4827,0 0.8958,-0.1701 1.2424,-0.5102 l 1.0852,0.5134 c -0.2705,0.3855 -0.596,0.6706 -0.9734,0.8569 -0.3791,0.1846 -0.8277,0.277 -1.3477,0.277 -0.8066,0 -1.4642,-0.2543 -1.9712,-0.7646 -0.507,-0.5086 -0.7613,-1.1468 -0.7613,-1.9129 0,-0.7856 0.2543,-1.4384 0.7613,-1.9567 0.507,-0.5199 1.1419,-0.7791 1.9081,-0.7791 0.8115,0 1.4723,0.2592 1.9809,0.7759 0.5086,0.5183 0.7629,1.2002 0.7629,2.0506 z m -1.2877,-1.0107 c -0.0859,-0.2819 -0.2543,-0.5119 -0.5054,-0.6884 -0.2527,-0.1766 -0.5443,-0.2641 -0.8779,-0.2641 -0.3612,0 -0.6771,0.0988 -0.9508,0.2981 -0.1701,0.1231 -0.3288,0.3417 -0.4746,0.6544 z m 3.6363,-0.0778 h 1.9437 v -1.8562 h 1.2926 v 5.1605 h -1.2926 v -2.1381 h -1.9437 v 2.1381 h -1.2925 v -5.1605 h 1.2925 z m 4.0834,-1.8562 h 4.8107 v 1.2342 h -1.7202 v 3.9263 h -1.2925 v -3.9263 h -1.798 z m 6.9504,0 v 0.5669 c 0.2333,-0.23 0.4859,-0.405 0.7581,-0.52 0.2721,-0.115 0.5636,-0.1733 0.873,-0.1733 0.6722,0 1.244,0.2543 1.7153,0.7613 0.4714,0.5086 0.7063,1.1598 0.7063,1.9551 0,0.7661 -0.243,1.4075 -0.7306,1.9226 -0.4859,0.5167 -1.0625,0.7743 -1.7299,0.7743 -0.2964,0 -0.5734,-0.0535 -0.8293,-0.1588 -0.2559,-0.1053 -0.5102,-0.2786 -0.7629,-0.5199 v 2.4377 h -1.2925 v -7.0459 z m 1.3574,1.0593 c -0.4066,0 -0.7451,0.1393 -1.0124,0.4163 -0.2689,0.2786 -0.4033,0.6414 -0.4033,1.0901 0,0.4584 0.1344,0.8293 0.4033,1.1111 0.2673,0.2835 0.6058,0.4244 1.0124,0.4244 0.3952,0 0.7272,-0.1442 0.9977,-0.4309 0.2705,-0.2883 0.405,-0.6543 0.405,-1.0998 0,-0.4422 -0.1328,-0.805 -0.3985,-1.0868 -0.264,-0.2835 -0.5993,-0.4244 -1.0042,-0.4244 z" />
  </g>
</svg>
